{"title":"Lottery.Ticket.2010.DvDRip.H264.Feel-Free","uid":5918325,"size":946858326,"categoryP":"video","categoryS":"movies","magnet":"?xt=urn:btih:2446e8af4e22bc373000840b3938a8c2a02bd9c7&amp;dn=Lottery.Ticket.2010.DvDRip.H264.Feel-Free&amp;tr=udp%3A%2F%2Ftracker.openbittorrent.com%3A80&amp;tr=udp%3A%2F%2Fopen.demonii.com%3A1337&amp;tr=udp%3A%2F%2Ftracker.coppersurfer.tk%3A6969&amp;tr=udp%3A%2F%2Fexodus.desync.com%3A6969","seeders":1,"leechers":0,"uploader":"deffjam555","files":8,"time":1288317393,"description":" &lt;a href=&quot;http://www.imdb.com/title/tt0979434/&quot; rel=&quot;nofollow&quot; target=&quot;_NEW&quot;&gt;http://www.imdb.com/title/tt0979434/&lt;/a&gt;\n\ncover &lt;a href=&quot;\nhttp://a.imageshack.us/img80/8658/87f75eb820182afc3a05c2e.jpg&quot; rel=&quot;nofollow&quot; target=&quot;_NEW&quot;&gt;\nhttp://a.imageshack.us/img80/8658/87f75eb820182afc3a05c2e.jpg&lt;/a&gt;\n\nGenre: Comedy\nLanguage:English\nIMDb:http://www.imdb.com/title/tt0979434/\nSource:DVD\n\nGeneral\nComplete name :Lottery.Ticket.2010.DvDRip.H264.Feel-Free\nFormat : MPEG-4\nFormat profile : Base Media / Version 2\nCodec ID : mp42\nFile size : 903 MiB\nDuration : 1h 39mn\nOverall bit rate : 1 274 Kbps\nVideo #1\nCodec ID : avc1\nCodec ID/Info : Advanced Video Coding\nDuration : 1h 39mn\nBit rate mode : Variable\nBit rate : 709 Kbps\nWidth : 720 pixels\nHeight : 304 pixels\nDisplay aspect ratio : 2.35:1\nFrame rate mode : Constant\nFrame rate : 23.976 fps\nResolution : 24 bits\nColorimetry : 4:2:0\nScan type : Progressive\nBits/(Pixel*Frame) : 0.135\nStream size : 503 MiB (56%)\nAudio #2\nID : 2\nFormat : AAC\nFormat/Info : Advanced Audio Codec\nFormat version : Version 4\nFormat profile : LC\nFormat settings, SBR : No\nCodec ID : 40\nDuration : 1h 39mn\nBit rate mode : Constant\nBit rate : 560 Kbps\nNominal bit rate : 576 Kbps\nChannel(s) : 6 channels\nChannel positions : Front: L C R, Rear: L R, LFE\nSampling rate : 48.0 KHz\nResolution : 16 bits\nStream size : 397 MiB (44%)\n\nPlot:\nKevin Carson is a young man living in the projects who has to survive a three-day weekend after his opportunistic neighbors find out he's holding a winning lottery ticket worth $370 million.\n\nscreen &lt;a href=&quot;\nhttp://img18.imageshack.us/img18/3247/lotteryticket2010dvdrip.jpg&quot; rel=&quot;nofollow&quot; target=&quot;_NEW&quot;&gt;\nhttp://img18.imageshack.us/img18/3247/lotteryticket2010dvdrip.jpg&lt;/a&gt; &lt;a href=&quot;\nhttp://img59.imageshack.us/img59/3247/lotteryticket2010dvdrip.jpg&quot; rel=&quot;nofollow&quot; target=&quot;_NEW&quot;&gt;\nhttp://img59.imageshack.us/img59/3247/lotteryticket2010dvdrip.jpg&lt;/a&gt; &lt;a href=&quot;\nhttp://img340.imageshack.us/img340/3247/lotteryticket2010dvdrip.jpg&quot; rel=&quot;nofollow&quot; target=&quot;_NEW&quot;&gt;\nhttp://img340.imageshack.us/img340/3247/lotteryticket2010dvdrip.jpg&lt;/a&gt; &lt;a href=&quot;\nhttp://img195.imageshack.us/img195/3247/lotteryticket2010dvdrip.jpg&quot; rel=&quot;nofollow&quot; target=&quot;_NEW&quot;&gt;\nhttp://img195.imageshack.us/img195/3247/lotteryticket2010dvdrip.jpg&lt;/a&gt; &lt;a href=&quot;\nhttp://img59.imageshack.us/img59/368/lotteryticket2010dvdripx.jpg&quot; rel=&quot;nofollow&quot; target=&quot;_NEW&quot;&gt;\nhttp://img59.imageshack.us/img59/368/lotteryticket2010dvdripx.jpg&lt;/a&gt;","torrent":{"xt":"urn:btih:2446e8af4e22bc373000840b3938a8c2a02bd9c7","amp;dn":"Lottery.Ticket.2010.DvDRip.H264.Feel-Free","amp;tr":["udp%3A%2F%2Ftracker.openbittorrent.com%3A80","udp%3A%2F%2Fopen.demonii.com%3A1337","udp%3A%2F%2Ftracker.coppersurfer.tk%3A6969","udp%3A%2F%2Fexodus.desync.com%3A6969"],"infoHash":"2446e8af4e22bc373000840b3938a8c2a02bd9c7","infoHashBuffer":{"type":"Buffer","data":[36,70,232,175,78,34,188,55,48,0,132,11,57,56,168,194,160,43,217,199]},"announce":[],"urlList":[]}}